HIERARCHY
ROOT hip
{
	OFFSET 0.000000 0.000000 0.000000 
	CHANNELS 6 Xposition Yposition Zposition Xrotation Zrotation Yrotation
	JOINT abdomen
	{
		OFFSET 0.000000 3.402643 0.000000 
		CHANNELS 3 Xrotation Zrotation Yrotation
		JOINT chest
		{
			OFFSET 0.000000 8.438565 -0.680529 
			CHANNELS 3 Xrotation Zrotation Yrotation
			JOINT neck
			{
				OFFSET 0.000000 10.207942 -0.272212 
				CHANNELS 3 Xrotation Zrotation Yrotation
				JOINT head
				{
					OFFSET 0.000000 3.130431 0.000000 
					CHANNELS 3 Xrotation Zrotation Yrotation
					End Site
					{
						OFFSET 0.000000 3.130435 0.000000 
					}
				}
			}
			JOINT lCollar
			{
				OFFSET 3.470700 6.669187 -0.816635 
				CHANNELS 3 Yrotation Zrotation Xrotation
				JOINT lShldr
				{
					OFFSET 3.198488 0.000000 0.000000 
					CHANNELS 3 Zrotation Yrotation Xrotation
					JOINT lForeArm
					{
						OFFSET 10.139888 0.000000 0.000000 
						CHANNELS 3 Yrotation Zrotation Xrotation
						JOINT lHand
						{
							OFFSET 8.370511 0.000000 0.000000 
							CHANNELS 3 Zrotation Yrotation Xrotation
							End Site
							{
								OFFSET 4.083176 0.000000 0.000000 
							}
						}
					}
				}
			}
			JOINT rCollar
			{
				OFFSET -3.470700 6.669187 -0.816635 
				CHANNELS 3 Yrotation Zrotation Xrotation
				JOINT rShldr
				{
					OFFSET -3.198488 0.000000 0.000000 
					CHANNELS 3 Zrotation Yrotation Xrotation
					JOINT rForeArm
					{
						OFFSET -10.139888 0.000000 0.000000 
						CHANNELS 3 Yrotation Zrotation Xrotation
						JOINT rHand
						{
							OFFSET -8.370511 0.000000 0.000000 
							CHANNELS 3 Zrotation Yrotation Xrotation
							End Site
							{
								OFFSET -4.083176 0.000000 0.000000 
							}
						}
					}
				}
			}
		}
	}
	JOINT lThigh
	{
		OFFSET 5.308129 -1.633274 1.361059 
		CHANNELS 3 Xrotation Zrotation Yrotation
		JOINT lShin
		{
			OFFSET -2.041588 -20.007561 0.000000 
			CHANNELS 3 Xrotation Zrotation Yrotation
			JOINT lFoot
			{
				OFFSET 0.000000 -19.190928 -1.224953 
				CHANNELS 3 Xrotation Yrotation Zrotation
				End Site
				{
					OFFSET 0.000000 -2.449906 4.627600 
				}
			}
		}
	}
	JOINT rThigh
	{
		OFFSET -5.308129 -1.633274 1.361059 
		CHANNELS 3 Xrotation Zrotation Yrotation
		JOINT rShin
		{
			OFFSET 2.041588 -20.007561 0.000000 
			CHANNELS 3 Xrotation Zrotation Yrotation
			JOINT rFoot
			{
				OFFSET 0.000000 -19.190928 -1.224953 
				CHANNELS 3 Xrotation Yrotation Zrotation
				End Site
				{
					OFFSET 0.000000 -2.449906 4.627600 
				}
			}
		}
	}
}
MOTION
Frames: 11
Frame Time: 0.033333
-58.158741 47.286186 64.840012 1.606734 -4.597808 -42.902634 0.000000 0.000000 0.000000 -3.560686 13.178527 -23.653206 -15.752405 -2.895371 0.101510 12.889436 5.297729 -2.015543 -3.519355 9.157742 6.311733 -89.762787 -3.629247 9.702876 -22.473505 20.462814 28.827524 23.856770 21.941973 -7.050046 3.090466 -14.082293 8.028685 75.340034 -19.100159 -3.305863 13.574195 -10.358804 40.636120 17.830013 -16.619164 -9.953417 -6.591184 12.858720 10.659224 67.182655 5.160810 5.703625 5.106155 0.044512 -5.839271 -17.327675 5.086103 -5.050669 26.540630 4.634533 -31.122320 -13.140963 0.273689 -2.457809 
-60.779457 47.707756 67.055756 1.251896 -3.153546 -45.186501 0.000000 0.000000 0.000000 2.603607 12.780196 -15.477518 -16.818136 -3.448015 0.536538 12.146040 5.633816 -2.112493 -3.519355 9.157742 6.311733 -90.645653 -0.795830 8.673656 -23.139524 16.363201 28.445133 21.749712 26.450449 -6.626646 3.090466 -14.082293 8.028685 80.910370 -10.528486 -3.643764 13.798160 -10.011078 41.860321 11.583380 -18.007305 -9.938062 -14.497129 10.542127 8.943851 68.312935 3.910867 6.676182 -1.487053 0.269290 -2.948215 -13.764171 4.890597 -5.088676 27.214645 3.883097 -28.809362 -16.582781 0.262904 -1.998663 
-63.412708 48.223019 69.327812 -0.380986 -1.474577 -48.994106 0.000000 0.000000 0.000000 6.776382 8.068991 -5.714246 -14.274290 -3.439428 0.783819 10.691751 5.065012 -1.749009 -3.519355 9.157742 6.311733 -90.100792 3.293351 6.464637 -22.738716 12.786285 27.882565 13.799016 25.106651 -7.766216 3.090466 -14.082293 8.028685 86.451096 -2.606877 -2.168950 14.306679 -10.260127 42.182499 5.869651 -17.700075 -9.560743 -19.042072 7.782899 7.758849 61.778595 0.856072 6.275254 -6.746177 0.181210 -0.677315 -8.589369 3.611583 -4.945126 25.807655 2.408663 -25.385674 -18.394535 0.244458 -1.750757 
-65.978111 48.678650 71.726669 -1.777392 -0.419720 -53.883461 0.000000 0.000000 0.000000 7.124700 2.257840 5.204182 -11.560302 -3.116879 0.587030 10.534744 5.016695 -1.608195 -3.519355 9.157742 6.311733 -88.448555 8.177935 5.073010 -21.891926 10.741747 28.986469 5.890011 24.501499 -8.697798 3.090466 -14.082293 8.028685 91.507080 3.328802 -0.015548 16.250658 -11.985059 39.801853 4.917604 -17.253334 -9.456256 -21.072466 6.776563 6.846287 49.394901 -3.429436 8.930623 -8.713484 0.036980 0.780967 -3.151914 2.030012 -5.054824 23.456772 1.150989 -21.507124 -19.100739 0.199498 -1.534472 
-68.603180 48.853718 74.256119 -2.382917 -0.536645 -58.219856 0.000000 0.000000 0.000000 6.087530 -1.951831 15.055344 -10.240228 -1.968558 -0.091026 9.896412 4.412944 -1.452780 -3.519355 9.157742 6.311733 -85.743584 13.565775 4.214105 -21.041052 9.498139 31.284147 1.781289 23.724970 -9.107357 3.090466 -14.082293 8.028685 95.053329 8.543118 2.062211 18.954000 -14.815271 37.538044 6.428816 -15.951469 -9.365206 -20.142498 7.058923 5.259564 31.440460 -6.528807 14.278714 -7.443647 -0.147678 2.074444 2.069950 0.868898 -5.749515 22.186674 0.691182 -19.470869 -19.701687 0.074383 -1.029332 
-71.249496 48.707047 76.852737 -1.933792 -0.819845 -61.886383 0.000000 0.000000 0.000000 2.974368 -3.520653 22.326698 -9.543478 -1.466009 -0.486316 8.407725 4.003884 -1.488247 -3.519355 9.157742 6.311733 -82.988930 20.269770 3.059789 -20.442596 8.882200 33.232788 -4.476691 20.880314 -9.466284 3.090466 -14.082293 8.028685 97.347595 13.172319 3.977511 21.667501 -17.925009 38.316883 6.972852 -14.274324 -9.171063 -18.246735 7.829554 2.822730 12.105528 -6.315161 19.050507 -6.694319 -0.285861 3.140511 5.867530 -0.107560 -6.883222 23.075911 0.388221 -17.622023 -18.650789 -0.042432 -0.447841 
-73.954483 48.203621 79.562454 -1.192222 -2.118682 -64.379776 0.000000 0.000000 0.000000 -1.846267 -1.415281 26.803415 -7.286993 -1.741099 -0.869967 7.086580 3.758452 -1.905886 -3.519355 9.157742 6.311733 -80.809761 27.871672 2.860809 -19.928329 8.384624 34.321510 -13.294209 18.611279 -9.743960 3.090466 -14.082293 8.028685 98.413826 15.916782 5.537624 24.182177 -20.898304 42.427135 7.519248 -16.220016 -9.444855 -20.224827 8.433404 0.153933 7.396859 -2.612532 20.313284 -10.807734 -0.107661 1.777892 9.259131 -0.849200 -8.432207 26.865902 -0.554971 -15.271978 -18.583469 -0.130026 -0.075243 
-76.783417 47.608871 82.336975 -0.821964 -3.632440 -65.905052 0.000000 0.000000 0.000000 -5.090659 1.887064 28.923817 -5.835311 -2.756083 -0.807035 6.078669 3.717102 -2.350947 -3.519355 9.157742 6.311733 -79.288010 33.847912 3.151709 -19.279108 7.808115 34.723507 -24.785357 16.330143 -9.745819 3.090466 -14.082293 8.028685 97.445282 16.046928 4.901161 29.118168 -20.425390 46.368958 8.275747 -19.992973 -10.024130 -20.531212 9.040072 -0.083955 7.316719 -1.799964 19.707098 -11.793490 -0.054098 1.353364 12.484769 -2.031471 -10.140554 31.341631 -1.879571 -13.507698 -15.604694 -0.085754 -0.200930 
-79.673401 46.899147 85.091164 -1.919829 -4.440875 -66.111504 0.000000 0.000000 0.000000 -6.720561 3.355742 29.888113 -3.784754 -3.179059 -0.326481 5.531112 3.578847 -2.037298 -3.519355 9.157742 6.311733 -78.381226 36.551849 2.804389 -19.154297 7.664389 33.343891 -33.569141 14.214410 -9.291991 3.090466 -14.082293 8.028685 94.982414 12.313314 3.634156 37.091282 -16.090637 47.401669 7.327909 -21.403135 -10.151540 -17.984415 8.347732 1.485471 7.721647 -4.167450 16.351620 -5.178453 0.045778 0.965554 13.235759 -5.242338 -13.460900 39.241810 -3.671377 -12.465757 -7.264626 -0.153438 0.519029 
-82.324905 46.560852 87.550110 -3.757367 -3.586045 -64.657684 0.000000 0.000000 0.000000 -8.412280 1.777555 27.735342 -2.601169 -3.077019 0.567302 5.071715 3.450482 -1.110885 -3.519355 9.157742 6.311733 -79.075340 36.234459 1.795585 -18.995558 7.581507 33.617638 -33.553055 13.103210 -8.866860 3.090466 -14.082293 8.028685 98.542564 13.682714 6.369826 29.246386 -21.403065 47.308327 8.362349 -22.322216 -10.384625 -18.123062 7.088935 3.244361 11.042243 -7.947127 16.578043 6.208246 -0.056941 -1.102927 10.453794 -8.874074 -16.170385 47.995193 -6.194625 -14.608025 6.604586 -0.018894 1.087682 
-84.669823 46.190231 89.574707 -7.192059 -2.034660 -61.989559 0.000000 0.000000 0.000000 -5.252653 -3.257776 22.632833 -5.487445 -3.525025 1.405621 7.056318 4.236742 -0.817144 -3.519355 9.157742 6.311733 -81.573219 30.852272 0.628247 -18.813242 7.530369 35.183270 -27.397032 13.165699 -8.822224 3.090466 -14.082293 8.028685 101.297737 14.778172 7.454406 25.756922 -21.849680 45.563213 5.522532 -23.835051 -10.283241 -22.491913 3.298927 4.434731 28.063221 -8.828485 9.804836 -3.414006 0.019287 0.388281 4.335088 -12.880136 -18.189281 60.823769 -9.008677 -23.259119 11.531891 0.013314 0.647358 
